<?xml version="1.0" standalone="no"?><!DOCTYPE svg PUBLIC "-//W3C//DTD SVG 1.1//EN" "http://www.w3.org/Graphics/SVG/1.1/DTD/svg11.dtd"><svg t="1579429694072" class="icon" viewBox="0 0 1024 1024" version="1.1" xmlns="http://www.w3.org/2000/svg" p-id="4182" width="24" height="24" xmlns:xlink="http://www.w3.org/1999/xlink"><defs><style type="text/css"></style></defs><path d="M452.627659 43.723411a61.747235 61.747235 0 0 1 118.093009 0l83.409939 246.818368a61.804093 61.804093 0 0 0 57.426066 43.666553L961.843348 341.144946a61.974665 61.974665 0 0 1 57.937783 45.485992 66.125262 66.125262 0 0 1-21.492132 72.209014l-198.660073 159.200974a66.011547 66.011547 0 0 0-21.946991 70.617004l71.242436 250.968965a66.011547 66.011547 0 0 1-23.197857 71.640438 59.359221 59.359221 0 0 1-72.322728 0.966578l-206.165262-148.398051a59.302363 59.302363 0 0 0-71.015006 0L270.001398 1012.063338a59.359221 59.359221 0 0 1-72.322728-0.966577 66.011547 66.011547 0 0 1-23.197857-71.640439L245.72325 687.97564a66.011547 66.011547 0 0 0-21.946992-70.617004l-198.660073-159.200974a66.125262 66.125262 0 0 1-21.492132-72.209014A61.974665 61.974665 0 0 1 61.618694 341.144946l250.17296-6.709184a61.804093 61.804093 0 0 0 57.426066-43.666553z" fill="#FFC300" p-id="4183"></path></svg>