<?xml version="1.0" standalone="no"?><!DOCTYPE svg PUBLIC "-//W3C//DTD SVG 1.1//EN" "http://www.w3.org/Graphics/SVG/1.1/DTD/svg11.dtd"><svg t="1579429769376" class="icon" viewBox="0 0 1024 1024" version="1.1" xmlns="http://www.w3.org/2000/svg" p-id="5261" data-spm-anchor-id="a313x.7781069.0.i19" width="24" height="24" xmlns:xlink="http://www.w3.org/1999/xlink"><defs><style type="text/css"></style></defs><path d="M906 426.6c3.3 0 6.5 0.6 9.8 0.9V235.6c0-21.1-17.6-38.2-39.4-38.2h-709c-21.7 0-39.4 17.1-39.4 38.2v191.9c3.3-0.4 6.5-0.9 9.8-0.9 49 0 88.6 38.5 88.6 85.9 0 47.4-39.6 85.9-88.6 85.9-3.3 0-6.5-0.6-9.8-1v192c0 21.1 17.6 38.2 39.4 38.2h709c21.7 0 39.4-17.1 39.4-38.2v-192c-3.3 0.4-6.5 1-9.8 1-49 0-88.7-38.5-88.7-85.9 0-47.4 39.7-85.9 88.7-85.9z m-49.3 222.6v119.3H187.1V649.2c57.3-19.9 98.5-73.7 98.5-136.7 0-63-41.2-116.8-98.5-136.7V256.5h669.6v119.3c-57.3 20-98.5 73.7-98.5 136.7 0 63 41.2 116.8 98.5 136.7z" fill="#FFC300" p-id="5262"></path><path d="M600.7 295.9h59.1v78.8h-59.1zM600.7 414.1h59.1v78.8h-59.1zM600.7 532.2h59.1V611h-59.1zM600.7 650.3h59.1v78.8h-59.1z" fill="#FFC300" p-id="5263"></path></svg>