<?xml version="1.0" standalone="no"?><!DOCTYPE svg PUBLIC "-//W3C//DTD SVG 1.1//EN" "http://www.w3.org/Graphics/SVG/1.1/DTD/svg11.dtd"><svg t="1579429629057" class="icon" viewBox="0 0 1024 1024" version="1.1" xmlns="http://www.w3.org/2000/svg" p-id="3454" width="24" height="24" xmlns:xlink="http://www.w3.org/1999/xlink"><defs><style type="text/css"></style></defs><path d="M 820.89 995.908 L 221.739 995.908 c -54.2037 0 -139.204 -68.1472 -139.204 -139.127 L 82.5344 290.995 c 0 -59.7419 61.1925 -139.11 126.541 -139.11 l 75.7675 0 l 0 134.775 l 472.073 0 L 756.915 151.876 l 66.2955 0 c 65.3653 0 136.892 60.4587 136.892 139.588 l 0 569.583 C 960.094 943.232 886.246 995.908 820.89 995.908 L 820.89 995.908 L 820.89 995.908 L 820.89 995.908 Z M 791.305 439.023 c 0 -9.30133 -7.552 -16.9301 -16.8448 -16.9301 L 268.169 422.093 c -9.30133 0 -16.8448 7.6288 -16.8448 16.9301 l 0 33.7493 c 0 9.30987 7.54347 16.8448 16.8448 16.8448 l 506.291 0 c 9.30133 0 16.8448 -7.53493 16.8448 -16.8448 L 791.305 439.023 L 791.305 439.023 L 791.305 439.023 Z M 791.305 607.744 c 0 -9.30987 -7.552 -16.8533 -16.8448 -16.8533 L 268.169 590.891 c -9.30133 0 -16.8448 7.54347 -16.8448 16.8533 l 0 33.7493 c 0 9.38667 7.54347 16.9131 16.8448 16.9131 l 506.291 0 c 9.30133 0 16.8448 -7.53493 16.8448 -16.9131 L 791.305 607.744 L 791.305 607.744 L 791.305 607.744 Z M 791.305 776.533 c 0 -9.2928 -7.552 -16.8448 -16.8448 -16.8448 L 268.169 759.689 c -9.30133 0 -16.8448 7.552 -16.8448 16.8448 l 0 33.7493 c 0 9.30987 7.54347 16.8448 16.8448 16.8448 l 506.291 0 c 9.30133 0 16.8448 -7.53493 16.8448 -16.8448 L 791.305 776.533 L 791.305 776.533 L 791.305 776.533 Z M 487.159 219.307 L 352.282 219.307 L 352.282 84.5056 l 67.4389 0 c 0 -37.1883 30.2251 -67.4304 67.4304 -67.4304 l 67.4389 0 c 37.1883 0 67.4304 30.2421 67.4304 67.4304 l 67.4389 0 L 689.459 219.307 L 487.159 219.307 L 487.159 219.307 L 487.159 219.307 Z M 520.909 73.9328 c -23.3387 0 -42.1717 18.9355 -42.1717 42.1888 c 0 23.2363 18.8416 42.0864 42.1717 42.0864 c 23.2533 0 42.112 -18.8501 42.112 -42.0864 C 563.021 92.8683 544.171 73.9328 520.909 73.9328 L 520.909 73.9328 L 520.909 73.9328 L 520.909 73.9328 Z" fill="#FFC300" p-id="3455"></path></svg>